<?xml version="1.0" standalone="no"?><!DOCTYPE svg PUBLIC "-//W3C//DTD SVG 1.1//EN" "http://www.w3.org/Graphics/SVG/1.1/DTD/svg11.dtd"><svg t="1625134727462" class="icon" viewBox="0 0 1024 1024" version="1.1" xmlns="http://www.w3.org/2000/svg" p-id="1184" xmlns:xlink="http://www.w3.org/1999/xlink" width="200" height="200"><path d="M878.797 705.126V377.651H376.32v498.381a75.162 75.162 0 0 1-3.891 24.166A157.389 157.389 0 0 1 219.75 1024h-63.078C70.144 1024 0 952.525 0 864.358c0-88.064 70.144-159.641 156.672-159.641h63.078c3.79 0 7.578 0.205 11.367 0.41V194.661C231.117 87.142 316.723 0 422.195 0h410.727C938.394 0 1024 87.142 1024 194.662v681.37a75.162 75.162 0 0 1-3.994 24.166A157.389 157.389 0 0 1 867.43 1024h-63.18c-86.426 0-156.672-71.475-156.672-159.642 0-88.064 70.246-159.641 156.672-159.641h63.078c3.891 0 7.68 0.205 11.469 0.41z" p-id="1185"></path></svg>